<svg id="Layer_1" data-name="Layer 1" xmlns="http://www.w3.org/2000/svg" viewBox="0 0 515.22 858"><title>go</title><path d="M432.38,480.55l2.52-.15,2.71.25c2,1.21,2.36-.15,2.66-1.65l-.09-1.1,3.34-.31c.85.7,1.82.27,2.75.33,2.22,1.82,3,.46,3.54-1.57l-.1-1.16,3.36-.24c2.15.85,4.17-.31,6.26-.39,2.21,1.71,3,.31,3.51-1.62l.79-1.18,5.14-.08,4.44.2c3.47,1.84,5.9.47,7.82-2.51l6.78-.52c1.73,1,3.6.07,5.38.41,1.26,1.44,3,.85,4.46.84,10.08,0,20.15-1.31,30.25-.06,2,.25,4.31.9,6.17-.8,2-.37,4.12.67,6.08-.42l2.59.17a1.22,1.22,0,0,0,1.8.2l1.65,0,.8.7c2.32,1.94,4.69,3.68,7.92,2a34.35,34.35,0,0,1,6,.49c7.2,1.86,14.51,3.27,21.69,5.3s14.58,4.37,21.59,7.07a240.23,240.23,0,0,1,30.62,14.41,265.54,265.54,0,0,1,37.36,25.68c.71.57,1.33,1.13,1.25,2.11-.11,1.34-1.16,1.44-2.18,1.61-2.83.47-5.66.61-8.19,2.45-5.06,3.67-10.4,7-15.49,10.6-5.93,4.24-11.49,9-17.66,12.88-3.81,2.37-7.4,7.81-13,3.55-2.07-1.56-4.33-2.72-6.49-4.07a153.33,153.33,0,0,0-19.64-10.18C584.26,541,577.49,538.78,571,536c-5.44-2.29-9.21-1.28-12.24,3.88-4.27,7.27-8,14.9-12.89,21.74-4,5.69-4.9,11.56-4.85,18.21.21,25.77.28,51.55-.06,77.32-.08,5.7,2.47,8.1,6.94,10.4,7.85,4,14.07,10,19.27,17.25,5.42,7.53,8.53,16,10.35,24.81,1.54,7.48,2.19,15.26-.78,22.66-1.36,3.39.11,5.67,2.36,7.61,5.75,5,11.64,9.76,17.51,14.59q22.6,18.61,45.22,37.19c.06,1.8,1.36,1.71,2.6,1.73,1.4,2.34,4.2,2.83,6,4.61,4.28,2.54,8.7,1.7,13.13.5,3,0,6.05-.36,9,0,8,1.08,14.4-.16,16.15-9.52,1.94-.47,3-1.37,1.76-3.47l.93-3.46c1.28-.44,3.32-.44,1.56-2.66L697.45,763c1.1-.13,2.09-.33,1-1.71l1.31-9.49c2.81-2.08,3.59-4.7,2.08-7.92q0-3.91,0-7.82l-.12-1.77.14-1.7c1.15-1.29.3-2.93.74-4.34,1.48-1.28,2.67-3.12,2.44-4.82-.57-4.29.58-8.51.15-12.74-.37-3.62-1.67-7.45,3.32-9.11.19-.06.15-.8.21-1.22a.37.37,0,0,1,.42-.26c2.64.66,4.21-.41,4.86-3,1.5,0,1.38-2.5,3.16-2.07q1.94.38,2-1.59l2.52-2.33c3.22,2.4,3-.48,3.42-2.26l3.57-2.38c1.79.08,3.71.34,3.61-2.41a4.36,4.36,0,0,1,3-2.13c1.46.27,2.06-.36,1.94-1.8l3.55-2.37a1.56,1.56,0,0,0,1.89-1.43l2.1-1.4q2.85.51,3-2.38l0,0c1.35-.25,3.5.7,3.14-2.11l0,0c1.75.77,5.21-2.36,5.32,1.85.14,5.6-.61,11.27,3.69,15.85l-.05.05c-1.35,1.31-.79,3-.79,4.53q-.06,25.81,0,51.61c0,1.88.32,3.95-.84,5.48-2.23,2.94-1.71,6.24-1.76,9.5-.06,3.49.6,6.95-2.39,10a5.82,5.82,0,0,0-.6,6.57c1.15,2.19.5,3.26-1.51,4.46-2.68,1.6-2.24,6,.57,7.81l-.27.83c-5.37,3.23-5.91,4.92-2.75,8.69a1.71,1.71,0,0,1-.83,1.77c-3,.35-4.75,1.74-4.41,5,.16,1.51-.59,2.56-1.56,3.75-1.3,1.6-2.49,3.76.81,4.85l-.6,1.28c-1.33,0-3.06-.78-3.61,1.05-.47,1.57-.71,3.42,1.45,4.26l-.37.85c-1.91-.31-3.89.34-4.36,2a33.55,33.55,0,0,1-5.43,11.12,2.16,2.16,0,0,0,.72,3.05h1l-.78,1.18c-1.63-.18-2.16.54-1.67,2.07a.48.48,0,0,1-.15.54,14.12,14.12,0,0,0-1.68-1.08,4.13,4.13,0,0,0-.67,4.72l-.09.16-2.05-.23c-.17,2.7-3.51,4.61-1.93,7.74l-1.47,1.61c-4.4-.8-2.82,2.25-2.78,4.31a.39.39,0,0,1-.38.29c-1-.28-2-.24-2.5.85s.48,1.38,1.28,1.65l-.71.84c-3.76.09-7.06,4.47-6,7.93l-.12.08A2.15,2.15,0,0,0,708,870c-2.65,4.54-7.09,7.47-10.17,11.69-4.12,5.64-8.33,11.29-14.34,15.36-2,1.33-5.48,2.37-4.76,6.16l-.09.09c-3.53-.23-5.77,1.72-6,5.16l-.12.1c-2.87-1-3.82.45-3.79,3.08-.59,1.14-1.05,2.42-2.68,2.42-4.61-.78-7.8,1.41-8.38,5.75a14.92,14.92,0,0,1-3.47,3.08c-7.26,4.18-14.2,8.93-21.53,13a206.61,206.61,0,0,1-20.32,9.76c-6.17,2.57-12.58,4.65-18.8,7.05A171.13,171.13,0,0,1,568.14,960c-8.33,1.81-16.83,4-25.58,3.88a50.3,50.3,0,0,0-8.15,1,133.9,133.9,0,0,1-37.19.45c-11.12-1.43-22.37-2-33.41-4.52-5.68-1.32-11.58-2.49-17.06-4.14-9.9-3-19.86-6-29.41-10.34-7.24-3.28-14.7-6.31-21.6-10.12a263.33,263.33,0,0,1-30.49-19.53,249.61,249.61,0,0,1-46.57-45.34,232.59,232.59,0,0,1-33.21-56.44,292.14,292.14,0,0,1-11.68-34.09c-1.33-4.91-1.63-10-3.14-14.73-3-9.47-3.5-19.35-4.31-29a221.05,221.05,0,0,1,1.43-52.3c1.25-8.1,3.34-16.05,4.18-24.22a18.75,18.75,0,0,1,1.67-4.91c.87-2.12,1.72-2,2.74,0,2.09,4.15,5.88,6.52,9.61,9,8.59,5.63,17.07,11.41,24.81,18.21l-1.27.95.55.45.78-1.39c1.61-.63,2.11.59,2.72,1.63-.31,3.37,1.57,3.11,3.8,2.29l.13.14c-1.31,3.77,1.3,2.93,3.3,2.81a.45.45,0,0,1,.39.33c2.77,4.32,1.65,9.16,1.81,13.82.06,1.79-.17,3.64,2.49,3.54l0,20.84c-1.79-.07-2.57.76-2.52,2.58.08,2.85-.5,5.83.16,8.53.79,3.23,1.34,6.88,4.62,8.95l.4.18.41-.13.12,3.32-.55.91c-1,.17-2.69-.06-2.3,1.59.32,1.37.1,3.7,2.76,3.32a.49.49,0,0,1,0,.62c-.59,1.33-.25,2.14,1.29,2.26h0l.74.92.2.84c-1.57,1.06-.2,2,.15,2.93l.18,1.41c-1,.18-2.54.59-1.76,1.6,1.2,1.55,1.42,4.12,4,4.5l.86,0,0,2.61c-3.55.42-3.12,2.12-1.17,4a16.49,16.49,0,0,0,3.15,2,1.81,1.81,0,0,1,.31.8c-1.62.76-1.35,2.18-1.23,3.54l1.83-.72.22,1.13c-.61,1.53-.05,2.21,1.55,2.11l.72,1.91c-1.16.14-2.29,1-1.66,1.9,2.54,3.42,2.46,8.78,7.57,10.28a.66.66,0,0,1,.33.45,1.94,1.94,0,0,0,2.38,2.57c2.34-.42,5.39-.13,5.95-3.64l3.56-.49a.46.46,0,0,0-.2.71l1,1.8c2.85-2.3,7.89,0,9.65-4.61l3.37-.13c.21,3.29,3,2.95,4.31,2,1.84-1.31,4.5-1.85,5.38-4.38a34.08,34.08,0,0,1,8.93-.89c3.87.56,8-1.74,9-5.07l3-2.36c3.33,1.33,2.83-1.14,3-3l1.15-1c.16.63.07,1.79.89,1.59,1.42-.34.6-1.55.49-2.44l1-1.3c.25.63.48,1.6,1.34,1.13s.47-1.52.37-2.35c.76-1.72,2.57-2.24,3.86-3.36,13-11.3,25.92-22.75,39.13-33.84,3.82-3.21,5.22-6.27,4.61-11.38-1.29-10.87-1.84-21.72,2.1-32.48,5.33-14.57,14.33-25.56,28.07-32.81,2.48-1.31,5-2.78,5-6.78-.2-29.66-.11-59.31-.12-89a8.46,8.46,0,0,0-.89-4.62c-6-9.77-11.89-19.54-17.5-29.52-1.5-2.66-3.36-5.94-7.84-4-7.06,3.06-14.67,4.48-21.86,7.37a170.91,170.91,0,0,0-27.84,13.85c-2.38,1.51-4.2,1.65-6.61-.17-2.57-1.94-4.85-4.55-8.33-5.08a.8.8,0,0,0-.46-.49c-.17-2.06-1.92-2-3.29-2.5l-.24-.2c-.78-2.42-3.24-2.37-5-3.4l0,0c0-1.75-1.49-1.45-2.48-1.84h0c-1-2.39-3.09-2.94-5.32-3.32l-.56-.74c.08-2.07-1.84-1.43-2.82-2.08l-.82-.81c-1.53-1.67-3.12-3.27-5.53-3.57l-2.71-1.46c-1.93-3.05-4.9-4.27-8.32-4.7a3.17,3.17,0,0,0-3.43,0,2.05,2.05,0,0,1-2-2.62l4.32-3.09c1.33.47,1.75,0,1.43-1.34l1.17-1.27c2.06.76,3.14-.08,3.48-2.13l.85-.51c1.11.48,1.81.25,1.9-1.08a5.76,5.76,0,0,1,2.7-2.52c5.28-.83,8.86-4.53,12.84-7.56.51,0,1-.09,1.11-.73,1.83-.19,2.65-1.93,4.11-2.67,4.06.41,6.59-2.89,10-4.19,5.82-2.25,11-5.9,17.18-7.44,2.1,1,3.08.11,3.4-2,1-.86,2.29-.75,3.51-.8,2.63,1,4.47.35,5.24-2.52ZM409.86,862.95c-.24,2.55-3.17,4.12-2.54,7v2.51c-1.18,2.21.2,2.28,1.8,2.16a2.67,2.67,0,0,0,.74.43c.33,1.46.73,2.84,2.75,2.13l2.67,1.26c-.13,1.24.35,1.82,1.64,1.48,1.4.66,3.18.63,4.11,2.18,1.07,2.17,3.37,2,5.19,2.69,5.83,2.56,11.14,6.28,17.48,7.67.34,1.55.88,2.79,2.82,1.73,4.72,1.87,9.42,3.85,14.55,4.36.17,1.19.65,1.86,1.94,1.12a16,16,0,0,0,6.44,1c1.9,1.62,3.71,3.52,6.59,2.23l10.89,1.1c1.66,2.5,3.93,2.67,6.49,1.7,7.93.95,15.89.66,23.84.62,6.65,0,13.39.54,19.92-.85,11.09-2.35,22.38-3.69,33.2-7.46a258.4,258.4,0,0,0,25.51-10.11A227.12,227.12,0,0,0,624,871.5c2.68-1.77,6.49-3.68,4.7-8.16a146.74,146.74,0,0,1-5.48-17.19c-1.86-7-5.08-12.89-11.23-17.6-14.19-10.89-27.81-22.54-41.63-33.91-7.18-5.91-14.31-11.88-21.5-17.79-1.65-1.35-3.26-3.13-5.74-1.69-7.52,4.36-15.87,5.36-24.25,5.31-7.13,0-14.42.37-21.21-3-5.29-2.65-10.06-2.13-14.15,3-2.48,3.1-5.83,5.53-8.9,8.12-6,5.06-12.46,9.62-17.32,15.92l-7.3,6.72-1.12.35c-4.61-.45-5.75,3.49-7.85,6.2l-2.65,2.52c-1.25.22-2.64.31-2.11,2.22l-6.47,5.72c-7.16.12-6.21,6.43-8.09,10.59a7.17,7.17,0,0,0-.87,3.9l0,.06c-3,1-2.2,4.52-4,6.31-2.36.72-1.52,2.74-1.74,4.32a22.72,22.72,0,0,0-3.47,7C409.93,860.52,409.71,861.61,409.86,862.95Z" transform="translate(-262.37 -110)" fill="#023559"/><path d="M581.37,238.12c-3.33-15.73-10-30-21-42-3.74-4.09-4.95-3.86-7.22,1.22-1.73,3.83-2.46,7.95-3.82,11.86a115.41,115.41,0,0,1-7.45,17.47c-.39.73-1,1.62-.36,2.4s1.91.63,2.86.32a12.38,12.38,0,0,0,2.26-1.25,35.64,35.64,0,0,1,22.08-4.63c1.25.15,3-.13,3,1.67.07,1.6-1.61,1.89-2.79,2.26-1.91.6-4,.83-5.86,1.45A92.62,92.62,0,0,0,525,252.62c-16.69,17-31.77,35.6-51.58,49.36-7.32,5.09-14.05,11.09-22.09,15.08-5.84,2.9-5.87,3.13-4.34,9.34A46.65,46.65,0,0,0,462.15,351c2.05,1.8,4.38,3.63,4.55,6.63.28,4.63,1.61,9.09,2,13.67,1.32,15.62,5.86,30.53,9.75,45.58a4.93,4.93,0,0,0,4.73,3.82c4.61.29,9.21.6,13.82.87,13.2.75,26.22-.87,39.24-2.71a14.3,14.3,0,0,0,11-7c10-15.62,12.43-32.62,11.26-50.57-.1-1.6-.45-2.64-2.34-1.53-5.46,3.21-11,6.31-16.39,9.59-10,6-20.29,10.87-32.36,10.43-2.55-.09-4.84-.5-7-2.55a5.18,5.18,0,0,1,4.63-1.63c6.42.42,12.29-2,18-4.22,16.36-6.51,28.48-18.35,38.07-32.72a134.83,134.83,0,0,0,21.11-55.34A126,126,0,0,0,581.37,238.12Zm-137.6-98.76.7-.63h0ZM420.3,173.16a3,3,0,0,0,1.65-2.33Zm-.54.78.36-.06a1.44,1.44,0,0,0,.19-.72Z" transform="translate(-262.37 -110)" fill="#f06484"/><path d="M420.3,173.16a1.44,1.44,0,0,1-.19.72l-.36.06Z" transform="translate(-262.37 -110)" fill="#f06484"/><path d="M421.94,170.83a3,3,0,0,1-1.65,2.33Z" transform="translate(-262.37 -110)" fill="#f06484"/><path d="M582.21,283.3a134.83,134.83,0,0,1-21.11,55.34C551.51,353,539.39,364.85,523,371.36c-5.68,2.26-11.55,4.63-18,4.22a5.18,5.18,0,0,0-4.63,1.63c2.15,2.05,4.45,2.46,7,2.55,12.07.44,22.38-4.39,32.36-10.43,5.42-3.28,10.94-6.38,16.39-9.59,1.89-1.11,2.24-.07,2.34,1.53,1.17,17.95-1.29,35-11.26,50.57a14.3,14.3,0,0,1-11,7c-13,1.84-26,3.46-39.24,2.71-4.61-.27-9.21-.58-13.82-.87a4.93,4.93,0,0,1-4.73-3.82c-3.89-15-8.43-30-9.75-45.58-.39-4.58-1.73-9-2-13.67-.17-3-2.5-4.83-4.55-6.63A46.65,46.65,0,0,1,447,326.41c-1.53-6.21-1.49-6.44,4.34-9.34,8-4,14.77-10,22.09-15.08,19.81-13.76,34.88-32.4,51.58-49.36a92.62,92.62,0,0,1,38.1-23.76c1.91-.61,4-.85,5.86-1.45,1.18-.37,2.86-.66,2.79-2.26-.07-1.8-1.77-1.52-3-1.67a35.64,35.64,0,0,0-22.08,4.63,12.38,12.38,0,0,1-2.26,1.25c-.95.3-2.11.53-2.86-.32s0-1.67.36-2.4a115.41,115.41,0,0,0,7.45-17.47c1.37-3.92,2.1-8,3.82-11.86,2.27-5.07,3.48-5.31,7.22-1.22,11,12,17.66,26.29,21,42A126,126,0,0,1,582.21,283.3Z" transform="translate(-262.37 -110)" fill="#f06484"/><path d="M764.39,619.86c.52,8-3.18,18-10,27-4.16,5.5-10.57,8.17-15.83,12.28-10.39,8.11-21.22,15.67-31.94,23.36-5.36,3.84-14.11,2-18.59-3.69-4.19-5.32-7-10.81-4-17.9,1.27-3.06-.42-4.82-3.93-4.88-12.4-.21-19.13-10.27-16.59-21.74,1.15-5.2,1.11-5.13-4.1-5.62-10-.93-19.89-12-15.28-22.52,2.2-5,1.43-5.6-3.87-5.91a18.07,18.07,0,0,1-15.84-10.37c-2.65-5.39-2.77-11.49,2-16.08a88,88,0,0,1,12.81-10c5.26-3.45,10.2-7.32,15.33-10.92,6.4-4.49,12.43-9.72,19.32-13.23,8-4.08,16.7-5.65,26-2.94,5.77,1.68,11.66,2.78,17.07,5.57,13,6.7,24.08,15.65,32.11,28C758.08,584.26,764.32,599.3,764.39,619.86Z" transform="translate(-262.37 -110)" fill="#750f35"/><path d="M349.16,535.28c8.19,1.25,16,2.29,22.8,7.36,10.11,7.58,20.65,14.58,30.7,22.28,3.15,2.41,6.53,4.64,9.78,7,4.87,3.51,6.82,8.21,5.61,14a16.49,16.49,0,0,1-10.64,12.7c-2.21.84-4.44,1.9-7.06,1.79-4.42-.18-5.17.79-3.4,4.71,2.55,5.63,1.24,10.72-1.7,15.52-3.48,5.67-8.62,8.33-15.42,7.31-3.76-.57-4.77.66-3.26,4.31,2.37,5.73,2.06,11-1.31,16.35s-8.32,7.57-14.47,7.51c-4.89,0-5.36.55-4,5.2,2.68,9.11-.4,17.65-8.66,21.74-4.23,2.09-8.95,2.66-13.43-.81-7.25-5.6-14.71-10.94-22.28-16.1-8.07-5.5-16.46-10.62-23.35-17.59-11.26-11.39-13.54-25.42-11.57-40.78a82.55,82.55,0,0,1,6.71-23.59,87.06,87.06,0,0,1,21.35-28.94c8-7.15,16.76-12.89,27-16.39C338,536.92,343.74,536.47,349.16,535.28Z" transform="translate(-262.37 -110)" fill="#750f35"/><path d="M310.77,682.84C303,676,294.55,670.26,286,664.63c-3.73-2.45-7.52-4.82-9.61-9-1-2-1.87-2.14-2.74,0a18.75,18.75,0,0,0-1.67,4.91c-.84,8.17-2.93,16.11-4.18,24.22a221.05,221.05,0,0,0-1.43,52.3c.81,9.64,1.3,19.52,4.31,29,1.51,4.74,1.81,9.83,3.14,14.73a292.14,292.14,0,0,0,11.68,34.09,232.59,232.59,0,0,0,33.21,56.44,249.61,249.61,0,0,0,46.57,45.34,263.33,263.33,0,0,0,30.49,19.53c6.9,3.81,14.36,6.84,21.6,10.12,9.55,4.32,19.51,7.35,29.41,10.34,5.48,1.66,11.38,2.83,17.06,4.14,11,2.56,22.3,3.09,33.41,4.52a133.9,133.9,0,0,0,37.19-.45,50.3,50.3,0,0,1,8.15-1c8.75.13,17.25-2.07,25.58-3.88a171.13,171.13,0,0,0,25.47-7.27c6.22-2.41,12.63-4.49,18.8-7.05a206.61,206.61,0,0,0,20.32-9.76c7.33-4,14.27-8.79,21.53-13a14.85,14.85,0,0,0,3.47-3.08,23.73,23.73,0,0,0,8.38-5.74c1.63,0,2.09-1.28,2.68-2.42a4.63,4.63,0,0,0,3.79-3.08l.12-.1a12.09,12.09,0,0,0,6-5.16l.09-.09c4.46-2,7-6.36,11.18-8.7l.62.6c-4.77,6.36-10.92,11.3-17.09,16.16s-12.66,9.87-19.3,14.35c-5.58,3.77-11.47,7.08-17.32,10.44-4.39,2.52-8.68,5.2-13.38,7.09-3.21,1.29-6.09,3.28-9.55,4.09-3.14.73-5.46,3.18-8.79,4-5.25,1.37-10.88,2.67-15.46,5.09-5,2.64-10.35,3.14-15.35,4.69a152.92,152.92,0,0,1-17.91,4.16c-20.45,3.69-41.11,2.55-61.72,2.67a42.85,42.85,0,0,1-14.87-2.2c-2-.7-4.28-.37-6.44-.44-3.61-.12-7.18-.36-10.32-2.48a3.15,3.15,0,0,0-2-.71c-5.83,1.24-10.9-2.05-16.12-3.36A121.16,121.16,0,0,1,430.59,954c-3.15-1.23-6.29-3.06-9.88-3.54s-6.27-3-9.48-4.31c-2.64-1.11-5.63-2.64-8.29-3.82-5.16-2.29-9.6-5.88-15.09-7.63a21.8,21.8,0,0,1-7.84-5c-3.64-3.54-8.13-5.83-12.16-8.41-7.44-4.76-13.38-11.14-20.36-16.34-9.65-7.18-17.36-16.41-25-25.67-4.95-6-9.81-12-14.18-18.39-5.42-7.89-10.37-16.12-15.12-24.46a168.34,168.34,0,0,1-10.23-21.55c-2.5-6.35-5.39-12.6-7.32-19.29-1.38-4.76-1.33-10.33-4.95-14.41-.18-.21-.41-.53-.37-.76,1.15-6.39-3.36-11.86-3-18.14a8,8,0,0,0-.32-3.42c-3.6-8.84-3.32-18.11-3-27.34.15-4-2.08-7.69-1.59-11.29,1.53-11.28,1.54-22.58,1.69-33.91,0-1.52.86-3,1.39-4.53,1.12-3.13,2.16-6.15,1.45-9.67a8.31,8.31,0,0,1,.94-5.82c2.19-3.14,2.29-6.47,2.13-9.94-.12-2.63,1.29-4,3.51-4.85,2.45-.92,3.06,1.19,4.35,2.51a77.54,77.54,0,0,0,11.52,10c5.76,4,12.2,7.29,17.15,12.52a16.08,16.08,0,0,0,4.66,3,8.7,8.7,0,0,1,4.77,5.25l-2.45-.27c-.61-1-1.11-2.26-2.72-1.63Z" transform="translate(-262.37 -110)" fill="#b3c1cb"/><path d="M479.39,453.81c-1.09,2.31-2.35,2.1-3.72.25A5.77,5.77,0,0,1,479.39,453.81Z" transform="translate(-262.37 -110)" fill="#f06484"/><path d="M772.92,526.45a90.25,90.25,0,0,0-15-28.13c-16-20.2-39.34-32.48-62.31-43.05-16.19-7.45-32.48-14.68-48.78-21.89-9-4-35-10.09-39.16-19.95-1.07-2.51-.47-5.38.1-8,6.93-31.9,8-65.08,8.65-97.61,0-.25.5,0,.3.15s-.32-.39-.07-.33c.67-37.53,3.55-76.6-7.18-113.07-12.53-43-45.31-80.05-91.91-84.16-37.18-3.28-73.3,16.08-92.72,47.64-12.19,19.82-15.53,48.63-17.55,71.55-4.92,55.7,6.78,111.51,20.86,165.1,1.33,5.08,2.53,11-.7,15.14-1.92,2.46-5,3.66-7.93,4.76-38.72,14.48-78.2,30.06-108.83,57.82a140,140,0,0,0-34.31,47.05,106.7,106.7,0,0,0-8.37,30.32,90.61,90.61,0,0,0-.45,15.81,69.65,69.65,0,0,0,2.07,14.69,31.4,31.4,0,0,1,5.44-13.68c10.54-15.56,28.44-24.32,43.12-35.31,42.58-31.88,90.46-59.08,142.59-71.43,49.24-11.66,93.8-3.64,140.11,14.49,30.5,11.94,59.84,26.59,88.67,42.07,23.73,12.74,55.87,24,71.45,47.12,2.77,4.12,12.87,18.71,10.95,23.87C779.25,568,779.31,546.13,772.92,526.45ZM420.39,173.16a1.44,1.44,0,0,1-.19.72l-.36.06.54-.78,1.65-2.33A3,3,0,0,1,420.39,173.16ZM288.56,497.83a3.3,3.3,0,0,1-.67,1.12C288.1,498.58,288.33,498.21,288.56,497.83Zm156-359.12h0l-.7.63Zm-25.07,329,0-.06.41-.09Zm29.45-8.91h-.57l1.33-.32a.41.41,0,0,0,0,.1A5.1,5.1,0,0,0,448.94,458.8ZM582.3,283.3a134.83,134.83,0,0,1-21.11,55.34c-9.59,14.37-21.71,26.21-38.07,32.72-5.68,2.26-11.55,4.63-18,4.22a5.18,5.18,0,0,0-4.63,1.63c2.15,2.05,4.45,2.46,7,2.55,12.07.44,22.38-4.39,32.36-10.43,5.42-3.28,10.94-6.38,16.39-9.59,1.89-1.11,2.24-.07,2.34,1.53,1.17,17.95-1.29,35-11.26,50.57a14.3,14.3,0,0,1-11,7c-13,1.84-26,3.46-39.24,2.71-4.61-.27-9.21-.58-13.82-.87a4.93,4.93,0,0,1-4.73-3.82c-3.89-15-8.43-30-9.75-45.58-.39-4.58-1.73-9-2-13.67-.17-3-2.5-4.83-4.55-6.63a46.65,46.65,0,0,1-15.17-24.6c-1.53-6.21-1.49-6.44,4.34-9.34,8-4,14.77-10,22.09-15.08,19.81-13.76,34.88-32.4,51.58-49.36a92.62,92.62,0,0,1,38.1-23.76c1.91-.61,4-.85,5.86-1.45,1.18-.37,2.86-.66,2.79-2.26-.07-1.8-1.77-1.52-3-1.67a35.64,35.64,0,0,0-22.08,4.63,12.38,12.38,0,0,1-2.26,1.25c-.95.3-2.11.53-2.86-.32s0-1.67.36-2.4a115.41,115.41,0,0,0,7.45-17.47c1.37-3.92,2.1-8,3.82-11.86,2.27-5.07,3.48-5.31,7.22-1.22,11,12,17.66,26.29,21,42A126,126,0,0,1,582.3,283.3ZM771,579.21c-.07-.23-.14-.47-.22-.71a1.63,1.63,0,0,0,.31.46A2.09,2.09,0,0,1,771,579.21Zm4.72-25.44a4.21,4.21,0,0,1,0,2.31C775.71,555.31,775.71,554.53,775.7,553.77Z" transform="translate(-262.37 -110)" fill="#750f35"/><path d="M771,579a2.09,2.09,0,0,1-.09.24c-.07-.23-.14-.47-.22-.71A1.63,1.63,0,0,0,771,579Z" transform="translate(-262.37 -110)" fill="#f8c0cd"/><path d="M547,469.94l-.8-.7c1.53-2.84,4.39-1.8,6.11-1.19,2.53.89,5.27.78,7.69,2.1a7.13,7.13,0,0,0,5.46.67,7,7,0,0,1,6.11,1.35c1.79,1.4,3.72,1.19,5.63,1.67,5.51,1.37,11.18,2.15,16.31,5,3,1.69,6.61,2.27,9.9,3.41a210.85,210.85,0,0,1,23.65,10.25c7.25,3.57,13.93,8,20.83,12.17,9.33,5.58,17.76,12.43,26.44,18.92A8.34,8.34,0,0,1,676.1,526c.61,1,2.43,1.56,1.39,3.21-.86,1.38-2.31,1.54-3.81,1.62-2.94.17-5.64.27-8.63,1.74a78.67,78.67,0,0,0-11.61,7.55c-8.59,6.31-17.68,12-25.79,18.95-5.67,4.88-7,4.8-13,.28-6.36-4.84-13.79-7.61-20.72-11.33-5.59-3-11.71-4.61-17.29-7.64-3.17-1.72-7.34-1.59-10.77-3.46a2.59,2.59,0,0,0-3.34,1.17c-6.3,9.23-10.94,19.49-17.66,28.46-.92,1.22-.67,2.78-.67,4.22,0,29.24.07,58.49-.09,87.73a6.9,6.9,0,0,0,4.27,6.83c7,2.69,11.05,8.57,16.09,13.37C571,684.9,574,693,577.37,701.11c4.57,11,2.16,22.07,1.94,33.13-.05,2.53.28,4.06,2.35,5.41,9.43,6.13,17.82,13.69,26.17,21,8.16,7.18,17.26,13.18,25,20.86,4.35,4.31,10.17,7,14.09,12,1.47,1.88,4.63,1.42,7,1.66,8,.84,16.07,1.29,24.12,1.76,4.76.28,6.36-1.27,8.28-6.83,2.59-7.5,5.91-14.79,7.83-22.45,1.2-4.8,2.93-9.57,3.39-14.51.32-3.43.06-6.89,1.6-10.1,1.07-2.23.89-4.63,1-7h1.7q0,3.91,0,7.82c-1,2.54-2.31,5-2.08,7.92l-1.31,9.49a1.35,1.35,0,0,0-1,1.71l-4.51,16.46a2.71,2.71,0,0,0-1.56,2.66l-.93,3.46a6.54,6.54,0,0,0-1.76,3.47c-1.75,9.36-8.16,10.59-16.15,9.52-2.95-.4-6,0-9,0-4.33-1.31-8.75-.47-13.13-.5-1.83-1.77-4.64-2.26-6-4.61a2.52,2.52,0,0,0-2.6-1.73q-22.61-18.59-45.22-37.19c-5.86-4.83-11.75-9.63-17.51-14.59-2.25-1.94-3.72-4.21-2.36-7.61,3-7.41,2.32-15.18.78-22.66-1.82-8.84-4.93-17.29-10.35-24.81-5.2-7.22-11.42-13.21-19.27-17.25-4.47-2.3-7-4.71-6.94-10.4.35-25.77.27-51.55.06-77.32-.05-6.65.81-12.52,4.85-18.21,4.86-6.85,8.62-14.47,12.89-21.74,3-5.16,6.8-6.17,12.24-3.88,6.54,2.75,13.31,5,19.79,7.82A153.33,153.33,0,0,1,610.39,554c2.16,1.35,4.42,2.5,6.49,4.07,5.64,4.26,9.23-1.18,13-3.55,6.17-3.84,11.73-8.65,17.66-12.88,5.09-3.63,10.43-6.92,15.49-10.6,2.53-1.84,5.36-2,8.19-2.45,1-.17,2.07-.27,2.18-1.61.08-1-.54-1.54-1.25-2.11a265.54,265.54,0,0,0-37.36-25.68,240.23,240.23,0,0,0-30.62-14.41c-7-2.71-14.28-5-21.59-7.07s-14.48-3.44-21.69-5.3a34.35,34.35,0,0,0-6-.49C552.43,470.63,550,469.06,547,469.94Z" transform="translate(-262.37 -110)" fill="#a5b6c2"/><path d="M371.53,798.77l-3.37.13-10.65,2.81a.46.46,0,0,1,.2-.71c2.58-3.91,6.9-3.35,10.65-4,14.6-2.48,28.88-5.43,39.77-16.85,6.54-6.86,14.38-12.33,21.41-18.63,7.28-6.53,14.77-12.76,22.2-19.09,5-4.28,5.31-6.92,3.14-13a26.37,26.37,0,0,1,.19-19.36,10,10,0,0,0,.87-2.88c.8-11,7-19.39,13-27.93,5.08-7.28,12.4-11.78,20.27-15.42,2.16-1,2.85-2.42,2.18-4.46-.8-2.42-.6-4.86-.6-7.31,0-24.59-.64-49.21.33-73.77.34-8.67-3.07-14.6-7.23-21.05-3.64-5.65-6.93-11.53-10.32-17.34-1.68-2.89-3.59-3.62-7.3-3.56-5.23.09-9.91,2.12-14.29,3.63-9.08,3.13-18.23,6.71-26.46,12-2.68,1.72-6,2-8.26,4.89-1.5,1.95-4.35.74-6.11-.13-3.58-1.77-7.41-3.55-9-7.76,3.48.52,5.76,3.14,8.33,5.08,2.41,1.82,4.23,1.67,6.61.17a170.91,170.91,0,0,1,27.84-13.85c7.19-2.89,14.8-4.31,21.86-7.37,4.48-1.94,6.34,1.34,7.84,4,5.61,10,11.55,19.75,17.5,29.52a8.46,8.46,0,0,1,.89,4.62c0,29.66-.08,59.32.12,89,0,4-2.53,5.47-5,6.78-13.74,7.25-22.74,18.24-28.07,32.81-3.94,10.76-3.4,21.61-2.1,32.48.61,5.11-.8,8.17-4.61,11.38-13.2,11.09-26.1,22.54-39.13,33.84-1.29,1.12-3.09,1.64-3.86,3.36a1.91,1.91,0,0,0-1.71,1.22l-1,1.31-1.38.85-1.15,1a7.74,7.74,0,0,0-3,3l-3,2.36c-2.78,2.09-6.43,2.64-9,5.07a34.1,34.1,0,0,0-8.93.89Z" transform="translate(-262.37 -110)" fill="#abbbc6"/><path d="M717.12,695.06c-1.79-.43-1.66,2.06-3.16,2.06-2.18.09-3.47,1.63-4.86,3a.37.37,0,0,0-.42.26c-5.1,1-8,3.36-6.17,9.16.52,1.7.08,3.71.07,5.57q0,6.57,0,13.15c-.44,1.41.42,3-.74,4.34a15,15,0,0,1-1.62-7.4c-.11-6.65,0-13.31-.08-20a4.92,4.92,0,0,1,2.82-4.86A190,190,0,0,0,722,688.18c4.92-3.64,10.35-7,15.2-10.64,5.27-4,11.45-7.1,15.63-12.44,1.82-2.34,4-2.34,6.17-1.64,2.55.83,1.39,3,1,4.8-.51,2.54.41,4.94,1.47,7.11,1.78,3.67,1.88,7.5,1.82,11.41-.14,9,1.77,17.74,2.31,26.64.36,6,.93,12.08-.88,18.07a22,22,0,0,0-1.15,8.08c.86,9.48-2.59,18.45-2.94,27.76a13.38,13.38,0,0,1-1.5,5.37c-.5,1-1.42,2.13-1.34,3.13.44,5.59-3.1,10.2-3.56,15.68-.29,3.4-2.44,6.85-3.71,10.3a234.61,234.61,0,0,1-11,25.37c-4.18,8.24-7.91,16.76-13.66,24.19-2.32,3-4.14,6.45-6.32,9.64a303.47,303.47,0,0,1-26.53,32.82,4.15,4.15,0,0,1-2.57,1.33l-.61-.6c2.15-2.5,4.4-4.93,6.44-7.51,4.71-5.94,10.63-10.9,14.4-17.61l.11-.08c2.7-2.11,4.22-5.11,6-7.93l.71-.84c1-.56,1-1.57,1.22-2.51a.39.39,0,0,0,.38-.29c2-.74,2.19-2.66,2.78-4.31l1.47-1.61c1.68-2.32,3.84-4.38,4-7.51l.09-.16a3.23,3.23,0,0,0,2.36-3.64A.48.48,0,0,0,730,840a3.07,3.07,0,0,0,1.67-2.07l.78-1.18a.47.47,0,0,0,.25-.54,101.23,101.23,0,0,0,7.78-15.62l.37-.85,2.16-5.31.6-1.28a65.37,65.37,0,0,0,5.16-13.63,1.71,1.71,0,0,0,.83-1.77l2.75-8.69.27-.83c.45-1.81.78-3.66,1.37-5.42,4.15-12.2,6.24-24.92,7.41-37.6,2.24-24.32,2.06-48.71-2.49-72.87-.41-2.17.45-5.57-1.71-6.24-3-.92-4.53,2.31-6.19,4.43l0,0a2.81,2.81,0,0,0-3.14,2.1l0,0a3.32,3.32,0,0,0-3,2.38l-2.1,1.4c-1.22-.3-1.75.31-1.89,1.43l-3.55,2.37a3.31,3.31,0,0,0-1.94,1.8,4.36,4.36,0,0,0-3,2.13c-1.68.09-3.22.38-3.61,2.41l-3.57,2.38-3.42,2.26-2.52,2.33C717.92,693.33,717.34,694,717.12,695.06Z" transform="translate(-262.37 -110)" fill="#b3c1cb"/><path d="M411.76,200.08a8.55,8.55,0,0,0,1.83-5.64C412.93,196.34,412.29,198.22,411.76,200.08Zm-1.29,5.38c-.29,1.3-.54,2.6-.78,3.9C411,208.38,410.62,206.88,410.47,205.46Zm-2.75,16.91a3.35,3.35,0,0,0,.16-1.42C407.83,221.42,407.77,221.9,407.73,222.37Zm-.57,46.27c.17,2.35.38,4.69.61,7A18.63,18.63,0,0,0,407.16,268.64Z" transform="translate(-262.37 -110)" fill="#f06484"/><path d="M770.67,578.5c.08.23.15.47.22.71A2.09,2.09,0,0,0,771,579,1.63,1.63,0,0,1,770.67,578.5Z" transform="translate(-262.37 -110)" fill="#f06484"/><path d="M419.82,467.56l-.43.15,0-.06Z" transform="translate(-262.37 -110)" fill="#f8c0cd"/><path d="M540.15,468.82c-2,1.09-4.07.05-6.08.42-3.38-1.55-7.05-.83-10.56-1.16a118.23,118.23,0,0,0-30.31,1.18c-1.78-.34-3.65.55-5.38-.41.67-1.84,2.43-1,3.65-1.49a1.38,1.38,0,0,0,1.69-.52l2.73-.19c2-.18,4.12.69,5.94-.77l25.07-.58c1.31,2.34,3.51,1.08,5.34,1.32l1.86.18a1.38,1.38,0,0,0,1.7.55C537.23,467.93,539.21,466.82,540.15,468.82Z" transform="translate(-262.37 -110)" fill="#a5b6c2"/><path d="M427.16,484c-1.22,0-2.48-.05-3.51.8a5.2,5.2,0,0,0-3.4,2c-6.14,1.54-11.36,5.19-17.18,7.44-3.37,1.3-5.9,4.6-10,4.19,1.75-4.34,6.57-4,9.72-6.27a56.43,56.43,0,0,1,11.22-5.7c5.71-2.38,11.55-4.45,17.36-6.59.21-.08.63.44,1,.69l0,1C430.34,481.68,428.93,483.23,427.16,484Z" transform="translate(-262.37 -110)" fill="#a5b6c2"/><path d="M444.46,138.72h0l-.7.63Z" transform="translate(-262.37 -110)" fill="#f8c0cd"/><path d="M327.76,748.3c-3.28-2.07-3.83-5.72-4.62-8.95-.66-2.69-.08-5.68-.16-8.53,0-1.82.74-2.65,2.52-2.58l.59,1.52c-.84,1.64-.54,3.41-.33,5.07C326.31,739.33,327.08,743.81,327.76,748.3Z" transform="translate(-262.37 -110)" fill="#2c4f6d"/><path d="M325.47,707.4c-2.66.1-2.43-1.76-2.49-3.54-.16-4.66,1-9.5-1.81-13.82,4.15.41,5.09,3,4.71,6.69-.19,1.82-.72,3.68.24,5.46Z" transform="translate(-262.37 -110)" fill="#2c4f6d"/><path d="M327.76,748.3c-.68-4.49-1.45-9-2-13.47-.2-1.66-.5-3.43.33-5.07,1.53,4.29,3.76,8.49,2.86,13.22-.34,1.82,2.25,3.8-.38,5.37l-.41.13Z" transform="translate(-262.37 -110)" fill="#abbbc6"/><path d="M326.12,702.18c-1-1.78-.43-3.64-.24-5.46.38-3.65-.56-6.27-4.71-6.69a.45.45,0,0,0-.39-.33l-.76-2C327.86,689.36,331,694.84,326.12,702.18Z" transform="translate(-262.37 -110)" fill="#abbbc6"/><path d="M345.5,802.1c-5.11-1.49-5-6.86-7.57-10.28-.63-.85.5-1.76,1.66-1.9,1.09,1,.5,3.12,2.46,3.47l1.34,3.3c-.37,1-.2,1.83,1,2.19l.85.88Z" transform="translate(-262.37 -110)" fill="#2c4f6d"/><path d="M387.89,501.82c-4,3-7.57,6.73-12.84,7.56,2-3.27,5.18-4.83,8.49-6.27a1.61,1.61,0,0,0,2-1.42l.16-.15Z" transform="translate(-262.37 -110)" fill="#a5b6c2"/><path d="M407.89,220.95a3.35,3.35,0,0,1-.16,1.42C407.77,221.9,407.83,221.42,407.89,220.95Z" transform="translate(-262.37 -110)" fill="#f9ced8"/><path d="M473.22,471.89l-4.44-.2c2.71-4.31,6.84-3.34,10.82-2.88C478.07,471.07,474.92,470,473.22,471.89Z" transform="translate(-262.37 -110)" fill="#a5b6c2"/><path d="M328.14,752.57l.55-.91c2.53,2.43,4.17,5.11,2.4,8.72l-1.2,0h0a2.12,2.12,0,0,0-1.29-2.26.48.48,0,0,0,0-.62Q328.37,755,328.14,752.57Z" transform="translate(-262.37 -110)" fill="#abbbc6"/><path d="M459.34,474.57c-2.09.08-4.11,1.24-6.26.39,3.26-1.93,6.34-4.46,10.56-3.19l-.79,1.18A3.7,3.7,0,0,0,459.34,474.57Z" transform="translate(-262.37 -110)" fill="#a5b6c2"/><path d="M407.77,275.69c-.23-2.35-.44-4.69-.61-7A18.63,18.63,0,0,1,407.77,275.69Z" transform="translate(-262.37 -110)" fill="#f8c0cd"/><path d="M334.24,772.55l-.86,0-2.19-6.09L331,765a1.18,1.18,0,0,1,.78-.29C333.92,766.92,337.18,768.76,334.24,772.55Z" transform="translate(-262.37 -110)" fill="#abbbc6"/><path d="M420.3,173.16a1.44,1.44,0,0,1-.19.72l-.36.06Z" transform="translate(-262.37 -110)" fill="#f9ced8"/><path d="M354.16,801.49c-.56,3.5-3.61,3.22-5.95,3.64a1.94,1.94,0,0,1-2.38-2.57c2.91,1.81,5,.26,7-1.7C353.3,801,354.05,800.57,354.16,801.49Z" transform="translate(-262.37 -110)" fill="#2c4f6d"/><path d="M342,793.38c-2-.34-1.37-2.5-2.46-3.47l-.72-1.91a2.82,2.82,0,0,0-1.55-2.11l-.22-1.13,1,0C342.55,786.16,341,790.37,342,793.38Z" transform="translate(-262.37 -110)" fill="#abbbc6"/><path d="M413.59,194.44a8.55,8.55,0,0,1-1.83,5.64C412.29,198.22,412.93,196.34,413.59,194.44Z" transform="translate(-262.37 -110)" fill="#f8c0cd"/><path d="M352.83,800.85c-2,2-4.09,3.5-7,1.7a.66.66,0,0,0-.33-.45l-.29-2.35C347.5,801.82,350.39,799.8,352.83,800.85Z" transform="translate(-262.37 -110)" fill="#abbbc6"/><path d="M336.19,781.15a16.47,16.47,0,0,1-3.15-2c-1.94-1.91-2.38-3.61,1.17-4l.18-.31.34.11c-.46,1.62-.15,3,1.45,3.8l.43.89Z" transform="translate(-262.37 -110)" fill="#2c4f6d"/><path d="M361.18,523.93a3.18,3.18,0,0,1,3.43,0l4.34,3.62c-3.21.91-4.94-2.52-7.79-2.66Z" transform="translate(-262.37 -110)" fill="#abbbc6"/><path d="M473.22,471.89c1.71-1.89,4.85-.82,6.38-3.08.54,0,1.23-.29,1.45.57C479.12,472.36,476.68,473.73,473.22,471.89Z" transform="translate(-262.37 -110)" fill="#2c4f6d"/><path d="M368.95,527.5l-4.34-3.62c3.42.42,6.38,1.64,8.32,4.7Z" transform="translate(-262.37 -110)" fill="#a5b6c2"/><path d="M446.27,477.93c-.92-.05-1.9.37-2.75-.33,1.45-2.39,3.2-4,6.19-2.41l.1,1.16A4.34,4.34,0,0,0,446.27,477.93Z" transform="translate(-262.37 -110)" fill="#a5b6c2"/><path d="M381.17,533.61l.82.81.85,1.62c-3-.72-6-1.46-7-5.05C377.59,531.93,379,533.55,381.17,533.61Z" transform="translate(-262.37 -110)" fill="#abbbc6"/><path d="M393.2,542.43c1.73,1,4.19,1,5,3.4l-2.28,0C394.5,545.05,393.09,544.35,393.2,542.43Z" transform="translate(-262.37 -110)" fill="#a5b6c2"/><path d="M437.61,480.66l-2.71-.25c1.38-1.64,2.35-4.15,5.29-2.49l.09,1.1A2.5,2.5,0,0,0,437.61,480.66Z" transform="translate(-262.37 -110)" fill="#a5b6c2"/><path d="M501.84,465.9c-1.83,1.46-4,.59-5.94.77C497.55,463.87,499.67,464.73,501.84,465.9Z" transform="translate(-262.37 -110)" fill="#f9ced8"/><path d="M381.17,533.61c-2.17-.06-3.58-1.67-5.32-2.62l-.22-1C378.05,530.34,379.64,531.93,381.17,533.61Z" transform="translate(-262.37 -110)" fill="#a5b6c2"/><path d="M385.37,537.24c2.23.38,4.35.92,5.32,3.32-1.78.16-2.73-2.08-4.62-1.61A1.4,1.4,0,0,1,385.37,537.24Z" transform="translate(-262.37 -110)" fill="#a5b6c2"/><path d="M386.07,538.94c1.89-.47,2.84,1.77,4.62,1.61h0l.84,1.6C388.88,542.5,387.18,541.22,386.07,538.94Z" transform="translate(-262.37 -110)" fill="#abbbc6"/><path d="M361.18,523.93l0,.91c-1.26.16-2.53.41-3.52-.74l0-2.66,1.53-.13A2.05,2.05,0,0,0,361.18,523.93Z" transform="translate(-262.37 -110)" fill="#a5b6c2"/><path d="M532.24,466.64c-1.83-.24-4,1-5.34-1.32C528.77,465.43,531.1,463.63,532.24,466.64Z" transform="translate(-262.37 -110)" fill="#f9ced8"/><path d="M320,687.74l.76,2c-2,.12-4.61,1-3.3-2.81Z" transform="translate(-262.37 -110)" fill="#2c4f6d"/><path d="M421.94,170.83a3,3,0,0,1-1.65,2.33Z" transform="translate(-262.37 -110)" fill="#f8c0cd"/><path d="M288.47,497.83a3.3,3.3,0,0,1-.67,1.12C288,498.58,288.24,498.21,288.47,497.83Z" transform="translate(-262.37 -110)" fill="#f297ac"/><path d="M338.07,784.72l-1,0-1.83.72c-.12-1.37-.39-2.78,1.23-3.54l.83.24Z" transform="translate(-262.37 -110)" fill="#2c4f6d"/><path d="M313.54,684.47l2.45.27c.47.65,1.4,1,1.34,2C315.11,687.58,313.24,687.84,313.54,684.47Z" transform="translate(-262.37 -110)" fill="#2c4f6d"/><path d="M336.18,778.75c-1.59-.84-1.9-2.17-1.45-3.8C335.39,776.16,338.21,776.53,336.18,778.75Z" transform="translate(-262.37 -110)" fill="#abbbc6"/><path d="M369.6,513.48c-.34,2.05-1.42,2.89-3.48,2.13C366.75,514,368.08,513.6,369.6,513.48Z" transform="translate(-262.37 -110)" fill="#a5b6c2"/><path d="M395.89,545.78l2.28,0,.24.2.09,1.48C396.4,548.79,396.37,547,395.89,545.78Z" transform="translate(-262.37 -110)" fill="#abbbc6"/><path d="M387.89,501.82l-2.19-.28c.78-2.52,2-2,3.3-.45C388.89,501.73,388.4,501.8,387.89,501.82Z" transform="translate(-262.37 -110)" fill="#abbbc6"/><path d="M398.5,547.5l-.09-1.48c1.37.48,3.12.44,3.29,2.5Z" transform="translate(-262.37 -110)" fill="#a5b6c2"/><path d="M337.33,782.18l-.83-.24a1.81,1.81,0,0,0-.31-.8l.42-1.51C338.71,780,338.73,780.87,337.33,782.18Z" transform="translate(-262.37 -110)" fill="#abbbc6"/><path d="M382.84,536l-.85-1.62c1,.64,2.9,0,2.82,2.08Z" transform="translate(-262.37 -110)" fill="#a5b6c2"/><path d="M357.67,521.45l0,2.66c-.82-.2-1.56-.5-1.42-1.55C356.33,521.72,357,521.57,357.67,521.45Z" transform="translate(-262.37 -110)" fill="#abbbc6"/><path d="M414.11,185.2c-1.32-1.4-.82-2.24.83-2.72l1.3-1c.63,2.54.38,4.81-2,6.42Z" transform="translate(-262.37 -110)" fill="#f06484"/><path d="M413.59,194.44c-.66,1.9-1.3,3.78-1.83,5.64a6.91,6.91,0,0,1-1,1,1,1,0,0,1-.38.72c-1.69-3-.61-9,1.9-10.64l1.18-1C413.51,191.57,413.62,193,413.59,194.44Z" transform="translate(-262.37 -110)" fill="#f06484"/><path d="M391.53,542.16l-.84-1.6c1,.39,2.5.09,2.48,1.84Z" transform="translate(-262.37 -110)" fill="#a5b6c2"/><path d="M372.35,511.9c-.09,1.32-.79,1.56-1.9,1.08C370.7,511.93,370.78,510.61,372.35,511.9Z" transform="translate(-262.37 -110)" fill="#a5b6c2"/><path d="M331.77,764.74a1.18,1.18,0,0,0-.78.29c-.35-1-1.72-1.87-.15-2.93Z" transform="translate(-262.37 -110)" fill="#2c4f6d"/><path d="M365,516.88c.32,1.3-.1,1.8-1.43,1.34A1.32,1.32,0,0,1,365,516.88Z" transform="translate(-262.37 -110)" fill="#a5b6c2"/><path d="M701.81,736.07h-1.7c0-1.07.44-1.73,1.58-1.79Z" transform="translate(-262.37 -110)" fill="#b3c1cb"/><path d="M385.54,501.7a1.61,1.61,0,0,1-2,1.42A1.93,1.93,0,0,1,385.54,501.7Z" transform="translate(-262.37 -110)" fill="#abbbc6"/><path d="M544.54,469.19a1.22,1.22,0,0,1-1.8-.2C543.5,467.63,544.09,467.75,544.54,469.19Z" transform="translate(-262.37 -110)" fill="#a5b6c2"/><path d="M405.58,241a1.09,1.09,0,0,1-.41.74c-1.89-.82-1.23-1.43.17-2C405.42,240.19,405.5,240.6,405.58,241Z" transform="translate(-262.37 -110)" fill="#f9ced8"/><path d="M405.62,265.74c-.08.42-.17.83-.25,1.25-1.41-.53-2.11-1.14-.16-1.95A1,1,0,0,1,405.62,265.74Z" transform="translate(-262.37 -110)" fill="#f9ced8"/><path d="M344.35,798.87c-1.17-.36-1.33-1.15-1-2.19A1.5,1.5,0,0,1,344.35,798.87Z" transform="translate(-262.37 -110)" fill="#abbbc6"/><path d="M493.16,466.85a1.38,1.38,0,0,1-1.69.52C491.74,466.21,492.13,465.47,493.16,466.85Z" transform="translate(-262.37 -110)" fill="#f9ced8"/><path d="M535.8,467.37a1.38,1.38,0,0,1-1.7-.55C535.17,465.46,535.54,466.26,535.8,467.37Z" transform="translate(-262.37 -110)" fill="#f9ced8"/><path d="M329.9,760.34l1.2,0-.45.88Z" transform="translate(-262.37 -110)" fill="#2c4f6d"/><path d="M408.06,872.48c5.4.37,8.65,4.81,13.09,7,7.63,3.83,15.09,7.84,23.08,11,4.09,1.64,8.69,2.18,12.57,4.84,2.63,1.81,6.74,2.49,9.54,2.69,7.85.54,14.83,4.74,22.89,4.18,6.87-.48,13.66,1.71,20.61,2.07,6.55.34,12.91-.53,19.35-1,1.42-.1,2.86-1.07,4.2-.92,9.15,1,17.76-2.09,26.34-4.09a109.92,109.92,0,0,0,13.73-3.91c3.86-1.46,7.92-3,11.74-4.58,7.07-2.92,14.53-5.2,20.79-10a42.19,42.19,0,0,1,7-4c4-2,7.3-5,10.92-7.51,2.37-1.66,2-6.87.35-11.48-2-5.45-4.64-10.77-4.86-16.71-.11-2.9-2.12-4.5-4-5.9-10.91-8.17-20.94-17.43-31.76-25.67-8.34-6.35-15.56-14-24.46-19.71-3.65-2.33-6.24-6.24-9.91-8.87-3.06-2.19-6-1.94-9-.73-9.94,4-20.44,6-30.76,3.92-4.87-1-10.55-.77-15-4.32-1.64-1.3-3.92-.38-6,1-8.87,5.85-15.62,14.13-24,20.54-2.17,1.66-3.81,4.54-7.24,4.07,4.86-6.3,11.32-10.86,17.32-15.92,3.08-2.59,6.42-5,8.9-8.12,4.08-5.1,8.86-5.62,14.15-3,6.79,3.4,14.08,3,21.21,3,8.38.06,16.73-.95,24.25-5.31,2.48-1.44,4.09.34,5.74,1.69,7.18,5.91,14.31,11.88,21.5,17.79,13.83,11.37,27.44,23,41.63,33.91,6.15,4.72,9.37,10.55,11.23,17.6a146.74,146.74,0,0,0,5.48,17.19c1.79,4.48-2,6.39-4.7,8.16a227.12,227.12,0,0,1-28.14,16.36A258.4,258.4,0,0,1,570.4,898c-10.82,3.77-22.11,5.1-33.2,7.46-6.53,1.39-13.27.81-19.92.85-8,0-15.91.32-23.84-.62a8.64,8.64,0,0,0-6.49-1.7L476,902.86c-2-1.18-4-2.62-6.59-2.23a16,16,0,0,1-6.44-1,1.7,1.7,0,0,0-1.94-1.13c-5.13-.51-9.83-2.49-14.55-4.36a2.93,2.93,0,0,0-2.82-1.73c-6.34-1.39-11.66-5.11-17.48-7.67-1-2.4-3.33-2.06-5.19-2.69-.93-1.55-2.7-1.52-4.11-2.18a1.91,1.91,0,0,0-1.64-1.48l-2.67-1.26a2.92,2.92,0,0,0-2.75-2.13,2.69,2.69,0,0,1-.74-.42Z" transform="translate(-262.37 -110)" fill="#a5b6c2"/><path d="M751,670.55c1.66-2.12,3.22-5.35,6.19-4.43,2.16.67,1.3,4.07,1.71,6.24,4.56,24.15,4.73,48.54,2.49,72.87-1.17,12.68-3.26,25.4-7.41,37.6-.6,1.76-.92,3.61-1.37,5.42-2.81-1.84-3.25-6.21-.57-7.81,2-1.2,2.66-2.28,1.51-4.46a5.82,5.82,0,0,1,.6-6.57c3-3,2.33-6.49,2.39-10,.05-3.25-.47-6.56,1.76-9.5,1.16-1.53.84-3.6.84-5.48q0-25.81,0-51.61c0-1.52-.56-3.21.79-4.53l.4.19-.35-.24c-4.3-4.58-3.54-10.25-3.69-15.85C756.2,668.19,752.74,671.31,751,670.55Z" transform="translate(-262.37 -110)" fill="#1e4162"/><path d="M710.75,869.42c-3.76,6.72-9.69,11.67-14.4,17.61-2,2.58-4.29,5-6.44,7.51-4.17,2.34-6.72,6.75-11.18,8.7-.72-3.78,2.79-4.82,4.76-6.15,6-4.07,10.22-9.72,14.34-15.36,3.08-4.22,7.52-7.15,10.17-11.69A2.15,2.15,0,0,1,710.75,869.42Z" transform="translate(-262.37 -110)" fill="#2c4f6d"/><path d="M493.2,469.27a118.23,118.23,0,0,1,30.31-1.18c3.51.33,7.18-.39,10.56,1.16-1.86,1.7-4.19,1-6.17.8-10.1-1.25-20.17,0-30.25.06C496.16,470.11,494.46,470.7,493.2,469.27Z" transform="translate(-262.37 -110)" fill="#2c4f6d"/><path d="M702.56,728.25q0-6.57,0-13.15c0-1.87.45-3.87-.07-5.57-1.78-5.8,1.07-8.16,6.17-9.16-.07.42,0,1.16-.21,1.22-5,1.65-3.69,5.48-3.32,9.11.43,4.23-.72,8.44-.15,12.74C705.23,725.13,704,727,702.56,728.25Z" transform="translate(-262.37 -110)" fill="#2c4f6d"/><path d="M740.46,820.6a101.07,101.07,0,0,1-7.78,15.62l-1.29.55a2.16,2.16,0,0,1-.72-3.05,33.55,33.55,0,0,0,5.43-11.12C736.57,820.94,738.55,820.29,740.46,820.6Z" transform="translate(-262.37 -110)" fill="#1e4162"/><path d="M420.81,842.74c-1.32,7.29-4.82,13.56-9.11,19.46l-.39-.33.25-1.52a22.71,22.71,0,0,1,3.47-7,8.6,8.6,0,0,0,1.74-4.32C418.61,847.26,417.79,843.77,420.81,842.74Z" transform="translate(-262.37 -110)" fill="#a5b6c2"/><path d="M748.75,799.53a65.37,65.37,0,0,1-5.16,13.63c-3.29-1.1-2.11-3.25-.81-4.85,1-1.19,1.71-2.24,1.56-3.75C744,801.27,745.77,799.88,748.75,799.53Z" transform="translate(-262.37 -110)" fill="#1e4162"/><path d="M450,811.17c.06.54.37,1.35.13,1.57-3.83,3.58-7.3,7.68-12.58,9.3l.82-1.81,2.65-2.52c3.41-1.06,5.22-4.15,7.85-6.2Z" transform="translate(-262.37 -110)" fill="#a5b6c2"/><path d="M371.53,798.77l9.69-2.35c-.88,2.53-3.54,3.08-5.38,4.38C374.55,801.72,371.74,802.06,371.53,798.77Z" transform="translate(-262.37 -110)" fill="#2c4f6d"/><path d="M425.52,833.46l-.77,2.51a1.59,1.59,0,0,0-1,1.76h0l-2,1c1.88-4.15.94-10.47,8.09-10.59l.15.84a1.6,1.6,0,0,0-1.23,1.41,1.9,1.9,0,0,1-.6.41A2.31,2.31,0,0,0,425.52,833.46Z" transform="translate(-262.37 -110)" fill="#6a8498"/><path d="M716.85,861.4c-1.76,2.82-3.27,5.82-6,7.93C709.78,865.87,713.09,861.49,716.85,861.4Z" transform="translate(-262.37 -110)" fill="#2c4f6d"/><path d="M666.1,914.09a23.73,23.73,0,0,1-8.38,5.74C658.3,915.5,661.49,913.31,666.1,914.09Z" transform="translate(-262.37 -110)" fill="#2c4f6d"/><path d="M752.33,789.07l-2.75,8.69C746.42,794,747,792.3,752.33,789.07Z" transform="translate(-262.37 -110)" fill="#1e4162"/><path d="M650.41,798c4.38,0,8.79-.81,13.13.5C659.11,799.73,654.7,800.57,650.41,798Z" transform="translate(-262.37 -110)" fill="#2c4f6d"/><path d="M357.51,801.71l10.65-2.81c-1.76,4.59-6.8,2.31-9.65,4.61Z" transform="translate(-262.37 -110)" fill="#2c4f6d"/><path d="M727.39,844.34c-.14,3.13-2.3,5.19-4,7.51-1.58-3.13,1.75-5,1.93-7.74Z" transform="translate(-262.37 -110)" fill="#2c4f6d"/><path d="M448.91,811.52c-2.63,2.05-4.44,5.14-7.85,6.2C443.16,815,444.3,811.07,448.91,811.52Z" transform="translate(-262.37 -110)" fill="#6a8498"/><path d="M390.15,795.53c2.59-2.43,6.24-3,9-5.07C398.1,793.79,394,796.08,390.15,795.53Z" transform="translate(-262.37 -110)" fill="#2c4f6d"/><path d="M678.64,903.33a12.09,12.09,0,0,1-6,5.16C672.87,905,675.11,903.1,678.64,903.33Z" transform="translate(-262.37 -110)" fill="#2c4f6d"/><path d="M743,814.44l-2.16,5.31c-2.16-.84-1.92-2.69-1.45-4.26C739.93,813.65,741.66,814.42,743,814.44Z" transform="translate(-262.37 -110)" fill="#1e4162"/><path d="M699.73,751.81c-.24-2.88,1-5.37,2.08-7.92C703.33,747.11,702.54,749.72,699.73,751.81Z" transform="translate(-262.37 -110)" fill="#2c4f6d"/><path d="M547,469.94c3-.88,5.44.69,7.92,2C551.68,473.62,549.31,471.88,547,469.94Z" transform="translate(-262.37 -110)" fill="#2c4f6d"/><path d="M411.7,862.19c-.08,3.36-1.84,5.77-4.38,7.74-.63-2.87,2.3-4.44,2.54-7l1.45-1.08Z" transform="translate(-262.37 -110)" fill="#a5b6c2"/><path d="M331.18,766.44l2.19,6.09c-2.54-.38-2.76-2.94-4-4.5C328.64,767,330.21,766.62,331.18,766.44Z" transform="translate(-262.37 -110)" fill="#2c4f6d"/><path d="M328.14,752.57q.23,2.46.46,4.91c-2.66.38-2.43-1.95-2.76-3.32C325.45,752.51,327.1,752.74,328.14,752.57Z" transform="translate(-262.37 -110)" fill="#2c4f6d"/><path d="M486.94,904a8.64,8.64,0,0,1,6.49,1.7C490.86,906.63,488.6,906.46,486.94,904Z" transform="translate(-262.37 -110)" fill="#6a8498"/><path d="M469.46,900.63c2.58-.39,4.54,1.06,6.59,2.23C473.16,904.15,471.36,902.25,469.46,900.63Z" transform="translate(-262.37 -110)" fill="#6a8498"/><path d="M729.83,840.54a3.23,3.23,0,0,1-2.36,3.64,4.14,4.14,0,0,1,.68-4.72A14.12,14.12,0,0,1,729.83,840.54Z" transform="translate(-262.37 -110)" fill="#2c4f6d"/><path d="M721.93,853.45c-.59,1.65-.77,3.57-2.78,4.31C719.11,855.71,717.53,852.65,721.93,853.45Z" transform="translate(-262.37 -110)" fill="#2c4f6d"/><path d="M421.73,838.77l2-1c-.74,1.77.12,4.47-2.86,4.95A7.16,7.16,0,0,1,421.73,838.77Z" transform="translate(-262.37 -110)" fill="#a5b6c2"/><path d="M672.57,908.59a4.63,4.63,0,0,1-3.79,3.08C668.74,909,669.7,907.64,672.57,908.59Z" transform="translate(-262.37 -110)" fill="#2c4f6d"/><path d="M709.1,700.12c1.39-1.37,2.68-2.91,4.86-3C713.32,699.71,711.75,700.78,709.1,700.12Z" transform="translate(-262.37 -110)" fill="#2c4f6d"/><path d="M427.16,484c1.77-.8,3.17-2.35,5.24-2.53C431.64,484.39,429.79,485,427.16,484Z" transform="translate(-262.37 -110)" fill="#2c4f6d"/><path d="M421,882.09c1.87.63,4.24.29,5.19,2.69C424.4,884.05,422.1,884.26,421,882.09Z" transform="translate(-262.37 -110)" fill="#6a8498"/><path d="M728.63,686.51c.38-2,1.93-2.32,3.61-2.41C732.34,686.85,730.42,686.59,728.63,686.51Z" transform="translate(-262.37 -110)" fill="#2c4f6d"/><path d="M721.64,691.14l3.42-2.26C724.59,690.66,724.86,693.54,721.64,691.14Z" transform="translate(-262.37 -110)" fill="#2c4f6d"/><path d="M459.34,474.57a3.7,3.7,0,0,1,3.51-1.62C462.32,474.88,461.55,476.28,459.34,474.57Z" transform="translate(-262.37 -110)" fill="#2c4f6d"/><path d="M446.27,477.93a4.34,4.34,0,0,1,3.54-1.57C449.3,478.39,448.49,479.75,446.27,477.93Z" transform="translate(-262.37 -110)" fill="#2c4f6d"/><path d="M402.17,788.1a7.74,7.74,0,0,1,3-3C405,787,405.5,789.44,402.17,788.1Z" transform="translate(-262.37 -110)" fill="#2c4f6d"/><path d="M688.69,789.05a6.54,6.54,0,0,1,1.76-3.47C691.71,787.68,690.63,788.59,688.69,789.05Z" transform="translate(-262.37 -110)" fill="#2c4f6d"/><path d="M718.78,858.05c-.2.94-.25,1.94-1.22,2.51-.79-.27-1.76-.52-1.28-1.65S717.75,857.78,718.78,858.05Z" transform="translate(-262.37 -110)" fill="#2c4f6d"/><path d="M420.25,486.8a5.2,5.2,0,0,1,3.4-2C423.33,486.91,422.35,487.82,420.25,486.8Z" transform="translate(-262.37 -110)" fill="#2c4f6d"/><path d="M437.61,480.66a2.5,2.5,0,0,1,2.66-1.65C440,480.5,439.59,481.87,437.61,480.66Z" transform="translate(-262.37 -110)" fill="#2c4f6d"/><path d="M747.8,672.64a2.81,2.81,0,0,1,3.14-2.1C751.31,673.33,749.16,672.39,747.8,672.64Z" transform="translate(-262.37 -110)" fill="#1e4162"/><path d="M744.75,675a3.32,3.32,0,0,1,3-2.38Q747.6,675.47,744.75,675Z" transform="translate(-262.37 -110)" fill="#2c4f6d"/><path d="M416.77,849a8.6,8.6,0,0,1-1.74,4.32C415.25,851.78,414.41,849.77,416.77,849Z" transform="translate(-262.37 -110)" fill="#6a8498"/><path d="M443.71,892.45a2.93,2.93,0,0,1,2.82,1.73C444.59,895.23,444.05,894,443.71,892.45Z" transform="translate(-262.37 -110)" fill="#6a8498"/><path d="M409.87,875a2.92,2.92,0,0,1,2.75,2.13C410.6,877.87,410.2,876.5,409.87,875Z" transform="translate(-262.37 -110)" fill="#6a8498"/><path d="M408.06,872.48l1.07,2.13c-1.61.12-3,0-1.8-2.16A.51.51,0,0,1,408.06,872.48Z" transform="translate(-262.37 -110)" fill="#6a8498"/><path d="M691.38,782.13a2.71,2.71,0,0,1,1.56-2.66C694.7,781.69,692.66,781.69,691.38,782.13Z" transform="translate(-262.37 -110)" fill="#2c4f6d"/><path d="M408.67,782a1.91,1.91,0,0,1,1.71-1.22c.1.83.5,1.87-.37,2.35S408.92,782.63,408.67,782Z" transform="translate(-262.37 -110)" fill="#2c4f6d"/><path d="M406.27,784.16l1.38-.85c.11.89.92,2.1-.49,2.44C406.34,785.95,406.44,784.79,406.27,784.16Z" transform="translate(-262.37 -110)" fill="#2c4f6d"/><path d="M411.31,861.86l-1.45,1.08c-.15-1.34.07-2.43,1.7-2.6Z" transform="translate(-262.37 -110)" fill="#6a8498"/><path d="M641.78,791.7a2.52,2.52,0,0,1,2.6,1.73C643.14,793.41,641.84,793.49,641.78,791.7Z" transform="translate(-262.37 -110)" fill="#2c4f6d"/><path d="M438.4,820.24l-.82,1.81-1.29.42C435.76,820.55,437.15,820.46,438.4,820.24Z" transform="translate(-262.37 -110)" fill="#6a8498"/><path d="M337.32,785.9a2.82,2.82,0,0,1,1.55,2.11C337.26,788.1,336.71,787.43,337.32,785.9Z" transform="translate(-262.37 -110)" fill="#2c4f6d"/><path d="M717.12,695.06c.22-1.09.8-1.73,2-1.59Q719.07,695.45,717.12,695.06Z" transform="translate(-262.37 -110)" fill="#2c4f6d"/><path d="M731.64,837.93A3.07,3.07,0,0,1,730,840C729.49,838.47,730,837.76,731.64,837.93Z" transform="translate(-262.37 -110)" fill="#2c4f6d"/><path d="M310.77,682.84h.05l-.78,1.39-.55-.45Z" transform="translate(-262.37 -110)" fill="#2c4f6d"/><path d="M328.62,758.1a2.12,2.12,0,0,1,1.29,2.26C328.36,760.24,328,759.43,328.62,758.1Z" transform="translate(-262.37 -110)" fill="#2c4f6d"/><path d="M697.45,763a1.35,1.35,0,0,1,1-1.71C699.54,762.68,698.55,762.88,697.45,763Z" transform="translate(-262.37 -110)" fill="#2c4f6d"/><path d="M415.28,878.42a1.91,1.91,0,0,1,1.64,1.48C415.63,880.24,415.16,879.66,415.28,878.42Z" transform="translate(-262.37 -110)" fill="#6a8498"/><path d="M740.76,677.8c.14-1.12.67-1.73,1.89-1.43A1.56,1.56,0,0,1,740.76,677.8Z" transform="translate(-262.37 -110)" fill="#2c4f6d"/><path d="M735.27,682a3.31,3.31,0,0,1,1.94-1.8C737.33,681.6,736.73,682.24,735.27,682Z" transform="translate(-262.37 -110)" fill="#2c4f6d"/><path d="M461.08,898.53a1.7,1.7,0,0,1,1.94,1.13C461.73,900.39,461.25,899.73,461.08,898.53Z" transform="translate(-262.37 -110)" fill="#6a8498"/><path d="M731.39,836.76l1.29-.55a.46.46,0,0,1-.25.54Z" transform="translate(-262.37 -110)" fill="#2c4f6d"/><path d="M409.7,209.36c.23-1.31.49-2.61.78-3.9C410.62,206.88,411,208.38,409.7,209.36Z" transform="translate(-262.37 -110)" fill="#f8c0cd"/><path d="M425.52,833.46a2.31,2.31,0,0,1,2.62-2.61A2.37,2.37,0,0,1,425.52,833.46Z" transform="translate(-262.37 -110)" fill="#a5b6c2"/><path d="M428.74,830.44A1.6,1.6,0,0,1,430,829C430.72,830.51,429.86,830.6,428.74,830.44Z" transform="translate(-262.37 -110)" fill="#a5b6c2"/><path d="M423.71,837.73a1.59,1.59,0,0,1,1-1.76C425.75,837.36,424.84,837.61,423.71,837.73Z" transform="translate(-262.37 -110)" fill="#a5b6c2"/><path d="M760,688.25l.35.24-.4-.19Z" transform="translate(-262.37 -110)" fill="#023559"/><path d="M581.37,238.12c-3.33-15.73-10-30-21-42-3.74-4.09-4.95-3.86-7.22,1.22-1.73,3.83-2.46,7.95-3.82,11.86a115.41,115.41,0,0,1-7.45,17.47c-.39.73-1,1.62-.36,2.4s1.91.63,2.86.32a12.38,12.38,0,0,0,2.26-1.25,35.64,35.64,0,0,1,22.08-4.63c1.25.15,3-.13,3,1.67.07,1.6-1.61,1.89-2.79,2.26-1.91.6-4,.83-5.86,1.45A92.62,92.62,0,0,0,525,252.62c-16.69,17-31.77,35.6-51.58,49.36-7.32,5.09-14.05,11.09-22.09,15.08-5.84,2.9-5.87,3.13-4.34,9.34A46.65,46.65,0,0,0,462.15,351c2.05,1.8,4.38,3.63,4.55,6.63.28,4.63,1.61,9.09,2,13.67,1.32,15.62,5.86,30.53,9.75,45.58a4.93,4.93,0,0,0,4.73,3.82c4.61.29,9.21.6,13.82.87,13.2.75,26.22-.87,39.24-2.71a14.3,14.3,0,0,0,11-7c10-15.62,12.43-32.62,11.26-50.57-.1-1.6-.45-2.64-2.34-1.53-5.46,3.21-11,6.31-16.39,9.59-10,6-20.29,10.87-32.36,10.43-2.55-.09-4.84-.5-7-2.55a5.18,5.18,0,0,1,4.63-1.63c6.42.42,12.29-2,18-4.22,16.36-6.51,28.48-18.35,38.07-32.72a134.83,134.83,0,0,0,21.11-55.34A126,126,0,0,0,581.37,238.12ZM534,324.44a4.84,4.84,0,0,1-2.19,1.26c-8.91,1.66-17.62,4.58-28.93,4.21-5-.79-12.34-.36-19.17-3.14-1.09-.44-2.49-.67-2.25-2.13s1.83-1,2.88-1.15c3.57-.51,7-1.76,10.39-2.65,7.75-2,15.88-2.5,23.82-3,4.63-.29,9.71,2.2,14.68,3.08C536.06,321.44,535.69,322.9,534,324.44Zm40.4-79.81c-5.12,6-10.67,11.5-19.79,10.91-4.69.44-9-2-13.55-3.16-1.53-.38-2.94-1.24-4.6-1-1.17.16-2.64,1.36-3.13-.76-.36-1.55.39-2.64,1.7-3.64a24.87,24.87,0,0,1,11.81-5.09c8.46-1.11,17-.88,25.51-1C575.16,240.87,576.38,242.28,574.39,244.63Z" transform="translate(-262.37 -110)" fill="#fcfafb"/><path d="M502.87,329.9c-5-.79-12.34-.36-19.17-3.13-1.09-.44-2.49-.67-2.25-2.14s1.83-1,2.89-1.14c3.57-.52,6.95-1.76,10.39-2.65,7.75-2,15.89-2.51,23.81-3,4.64-.28,9.71,2.21,14.68,3.09,2.83.5,2.45,2,.77,3.5a4.89,4.89,0,0,1-2.19,1.27C522.89,327.36,514.18,330.28,502.87,329.9Z" transform="translate(-262.37 -110)" fill="#750f35"/><path d="M554.6,255.54c-4.69.45-9-2-13.55-3.16-1.53-.38-3-1.24-4.6-1-1.16.16-2.64,1.36-3.13-.76-.36-1.55.39-2.64,1.71-3.64a24.85,24.85,0,0,1,11.8-5.08c8.46-1.12,17-.88,25.51-1,2.82,0,4,1.37,2.05,3.72C569.27,250.65,563.73,256.13,554.6,255.54Z" transform="translate(-262.37 -110)" fill="#750f35"/></svg>